<svg xmlns="http://www.w3.org/2000/svg" xmlns:xlink="http://www.w3.org/1999/xlink" viewBox="0 0 1134.7 1141.91"><defs><style>.cls-1{fill:none;}.cls-2{isolation:isolate;}.cls-3{mix-blend-mode:multiply;}.cls-4{clip-path:url(#clip-path);}.cls-5{fill:#1f1f1f;}.cls-6{clip-path:url(#clip-path-2);}.cls-7{clip-path:url(#clip-path-3);}.cls-8{clip-path:url(#clip-path-4);}.cls-9{clip-path:url(#clip-path-5);}.cls-10{clip-path:url(#clip-path-6);}.cls-11{clip-path:url(#clip-path-7);}.cls-12{clip-path:url(#clip-path-8);}.cls-13{clip-path:url(#clip-path-9);}.cls-14{clip-path:url(#clip-path-10);}.cls-15{clip-path:url(#clip-path-11);}.cls-16{clip-path:url(#clip-path-12);}.cls-17{clip-path:url(#clip-path-13);}.cls-18{clip-path:url(#clip-path-14);}.cls-19{clip-path:url(#clip-path-15);}.cls-20{fill:#fff;}</style><clipPath id="clip-path" transform="translate(-101.61 -186.93)"><rect class="cls-1" x="302.33" y="761.89" width="233.15" height="91.1"/></clipPath><clipPath id="clip-path-2" transform="translate(-101.61 -186.93)"><rect class="cls-1" x="254.03" y="798.95" width="129.47" height="74.75"/></clipPath><clipPath id="clip-path-3" transform="translate(-101.61 -186.93)"><rect class="cls-1" x="475.86" y="923.95" width="204.28" height="171.32"/></clipPath><clipPath id="clip-path-4" transform="translate(-101.61 -186.93)"><rect class="cls-1" x="513.08" y="778.66" width="50.52" height="32.11"/></clipPath><clipPath id="clip-path-5" transform="translate(-101.61 -186.93)"><rect class="cls-1" x="552.29" y="862.47" width="58.67" height="39.85"/></clipPath><clipPath id="clip-path-6" transform="translate(-101.61 -186.93)"><rect class="cls-1" x="377.28" y="740.24" width="31.61" height="34.84"/></clipPath><clipPath id="clip-path-7" transform="translate(-101.61 -186.93)"><rect class="cls-1" x="795.2" y="944.48" width="129.04" height="74.68"/></clipPath><clipPath id="clip-path-8" transform="translate(-101.61 -186.93)"><rect class="cls-1" x="166.9" y="849.25" width="204.68" height="84.48"/></clipPath><clipPath id="clip-path-9" transform="translate(-101.61 -186.93)"><rect class="cls-1" x="409.37" y="962.61" width="168.78" height="191.54"/></clipPath><clipPath id="clip-path-10" transform="translate(-101.61 -186.93)"><rect class="cls-1" x="280.28" y="783.8" width="129.44" height="74.75"/></clipPath><clipPath id="clip-path-11" transform="translate(-101.61 -186.93)"><rect class="cls-1" x="476.19" y="893.81" width="334.58" height="168.57"/></clipPath><clipPath id="clip-path-12" transform="translate(-101.61 -186.93)"><rect class="cls-1" x="296.66" y="544.96" width="159.28" height="158.55"/></clipPath><clipPath id="clip-path-13" transform="translate(-101.61 -186.93)"><rect class="cls-1" x="513.08" y="733.66" width="117.66" height="64.59"/></clipPath><clipPath id="clip-path-14" transform="translate(-101.61 -186.93)"><rect class="cls-1" x="101.61" y="886.95" width="446.09" height="278.58"/></clipPath><clipPath id="clip-path-15" transform="translate(-101.61 -186.93)"><rect class="cls-1" x="266.7" y="663.98" width="149.14" height="62.67"/></clipPath></defs><g class="cls-2"><g id="Capa_1" data-name="Capa 1"><g class="cls-3"><g class="cls-4"><polygon class="cls-5" points="353.1 666.06 352.12 665.5 200.71 578.09 206.16 574.96 353.1 659.8 402.17 631.47 433.85 649.76 433.85 656.02 402.17 637.74 353.1 666.06"/></g></g><g class="cls-3"><g class="cls-6"><polygon class="cls-5" points="276.45 686.77 152.41 615.16 157.84 612.02 281.88 683.64 276.45 686.77"/></g></g><g class="cls-3"><g class="cls-7"><polygon class="cls-5" points="573.09 908.33 394.83 805.42 438.38 780.27 374.25 743.23 374.33 737.01 449.25 780.27 405.71 805.42 578.52 905.18 573.09 908.33"/></g></g><g class="cls-3"><g class="cls-8"><polygon class="cls-5" points="456.5 623.85 411.46 598.03 411.46 591.73 461.98 620.71 456.5 623.85"/></g></g><g class="cls-3"><g class="cls-9"><polygon class="cls-5" points="509.35 715.4 450.68 681.85 450.68 675.54 509.35 708.99 509.35 715.4"/></g></g><g class="cls-3"><g class="cls-10"><polygon class="cls-5" points="304.33 588.15 275.66 571.55 307.27 553.3 307.27 559.58 286.51 571.56 306.29 583 305.53 584.32 306.29 584.76 304.33 588.15"/></g></g><g class="cls-3"><g class="cls-11"><polygon class="cls-5" points="817.22 832.23 693.58 760.7 699.01 757.55 822.62 829.08 817.22 832.23"/></g></g><g class="cls-3"><g class="cls-12"><polygon class="cls-5" points="269.96 746.8 232.17 724.96 200.26 743.37 65.29 665.44 70.74 662.32 200.26 737.1 232.17 718.68 269.96 740.52 269.96 746.8"/></g></g><g class="cls-3"><g class="cls-13"><polygon class="cls-5" points="471.08 967.22 368.2 907.82 426.65 874.07 307.75 805.49 339.65 787.07 325.39 778.83 330.82 775.68 350.52 787.07 318.62 805.49 437.52 874.07 379.07 907.82 476.53 964.09 471.08 967.22"/></g></g><g class="cls-3"><g class="cls-14"><polygon class="cls-5" points="302.7 671.62 301.71 671.05 178.66 600 184.09 596.87 308.1 668.46 302.7 671.62"/></g></g><g class="cls-3"><g class="cls-15"><polygon class="cls-5" points="703.73 875.45 702.75 874.88 539.52 779.98 514.96 794.16 374.57 713.11 374.66 706.88 514.96 787.89 539.53 773.71 540.51 774.28 709.15 872.3 703.73 875.45"/></g></g><g class="cls-3"><g class="cls-16"><polygon class="cls-5" points="348.9 516.57 308.34 492.98 305.22 491.42 305.43 491.3 305.36 491.26 308.35 489.6 310.79 488.18 310.8 488.18 330.75 476.66 211.85 408.08 243.77 389.64 195.04 361.17 200.46 358.02 254.6 389.67 222.72 408.07 341.62 476.66 316.28 491.3 354.32 513.45 348.9 516.57"/></g></g><g class="cls-3"><g class="cls-17"><polygon class="cls-5" points="511.59 611.31 411.46 553.01 411.46 546.72 511.59 605.02 529.13 594.8 527.67 600.96 511.59 611.31"/></g></g><g class="cls-3"><g class="cls-18"><polygon class="cls-5" points="440.66 978.6 364.56 934.66 348.22 944.1 347.24 943.53 249.14 886.89 313.33 849.83 264.48 821.62 234.84 838.73 233.86 838.17 0 703.15 5.44 700.02 234.84 832.46 264.48 815.35 324.2 849.83 260.01 886.89 348.22 937.82 364.56 928.39 446.09 975.46 440.66 978.6"/></g></g><g class="cls-3"><g class="cls-19"><polygon class="cls-5" points="308.8 539.71 245.3 503.05 232.3 510.56 185.11 483.31 170.48 491.75 165.08 488.61 185.11 477.04 232.3 504.29 245.3 496.78 314.23 536.58 308.8 539.71"/></g></g><polygon class="cls-20" points="693.6 1139.65 256.4 887.23 693.59 634.82 1130.79 887.23 693.6 1139.65"/><path class="cls-5" d="M795.21,1328.84l-1-.56L354.1,1074.16,795.2,819.49l1,.57,440.14,254.1ZM361.93,1074.16l433.28,250.17,433.28-250.17L795.2,824Z" transform="translate(-101.61 -186.93)"/><path class="cls-5" d="M797.79,1242.82l-1-.57L609.05,1133.84l188.74-109,1,.56,187.76,108.41Zm-180.92-109L797.79,1238.3l180.92-104.45L797.79,1029.4Z" transform="translate(-101.61 -186.93)"/><path class="cls-5" d="M795.83,1175.64V957.7l1-.56L984.58,848.73v217.94l-1,.56ZM799.74,960v208.9l180.92-104.45V855.5Z" transform="translate(-101.61 -186.93)"/><path class="cls-5" d="M799.74,1175.64,611,1066.67V848.73l188.74,109ZM614.91,1064.41l180.92,104.46V960L614.91,855.51Z" transform="translate(-101.61 -186.93)"/><path class="cls-5" d="M797.79,961.09l-1-.56L609.05,852.12l188.74-109,1,.56L986.53,852.12Zm-180.92-109L797.79,956.57,978.71,852.12,797.79,747.67Z" transform="translate(-101.61 -186.93)"/><path class="cls-5" d="M797.79,1108.17a149.34,149.34,0,1,1,105.6-43.74,148.36,148.36,0,0,1-105.6,43.74m0-294.77c-80.19,0-145.43,65.24-145.43,145.43s65.24,145.43,145.43,145.43S943.22,1039,943.22,958.83,878,813.4,797.79,813.4" transform="translate(-101.61 -186.93)"/><rect class="cls-5" x="509.37" y="819.83" width="3.91" height="6.02"/><path class="cls-5" d="M903.83,565.46c-.64-.35-1.26-.66-1.86-1a13.8,13.8,0,0,0-2.74-1l27.92,99.67c1.17-.64,2.34-1.27,3.54-1.88Z" transform="translate(-101.61 -186.93)"/><path class="cls-5" d="M693.68,571.9c-1.62,1-3.28,2.05-5,3.27l-22.85,81.34q1.7,1.29,3.33,2.61Z" transform="translate(-101.61 -186.93)"/><path class="cls-5" d="M694.92,567.48,797.79,201.42,898.26,560.08a16.35,16.35,0,0,1,4.4,1.19L797.79,186.93,690.05,570.34C691.72,569.26,693.35,568.32,694.92,567.48Z" transform="translate(-101.61 -186.93)"/><path class="cls-5" d="M931.58,664.52c-1.19.61-2.37,1.25-3.53,1.91L980.32,853,797.8,955.26,615.26,851l53-188.45c-1.08-.89-2.19-1.77-3.32-2.65L611.08,851.38l-.41,1.47,187.11,106.9L984.92,854.91Z" transform="translate(-101.61 -186.93)"/><path class="cls-5" d="M723.65,679a14,14,0,0,0-14-23.88l-4,2.35L689.75,670.6a14,14,0,0,0,17.91,21.62Z" transform="translate(-101.61 -186.93)"/><path class="cls-5" d="M782.2,744A12.89,12.89,0,0,0,762,732.8a10.6,10.6,0,0,0-1,.76l-7.65,6.35a13,13,0,0,0-1.72,18.21,13,13,0,0,0,18.24,1.71l7.67-6.36A13,13,0,0,0,782.2,744" transform="translate(-101.61 -186.93)"/><path class="cls-5" d="M799.18,596l-13.61,9.85,0,0L771.25,616c-1.45,4.65-.34,10.31,3.38,17.3l19.1,35.77c5.43,10.15,14.41,10,21,6.49,5-2.68,10.38-10.52,4.72-21.12l-11.23-21,3.69-21.14,3.2.56-2.2,12.59c6.43,5.3,8.85,7,11.63,8.92,1.09.75,2.25,1.56,3.72,2.63,1.57.72,23.81,10,60.54-18.64l2,2.56c-22.46,17.53-39.71,21.45-50.63,21.45a40.73,40.73,0,0,1-5.25-.33l52.73,42.21a19.73,19.73,0,0,1,4.53,5.17C902.68,679.75,911.5,672.53,924,665a116.66,116.66,0,0,1,16.43-8.11l.19-.07a11.71,11.71,0,0,0,7.13-10.93c.17-9.2-2-24.65-13.6-46-12-22.36-24.14-31.57-32.19-35.36a11.83,11.83,0,0,0-10.58-.1l-.06.07-.37.17c-.89.34-1.87.74-2.93,1.16-8,3.23-21.39,8.64-36.29,7.61a37.12,37.12,0,0,0-20.19,4.07l-26.12,13.93-2.84,2.06h0Z" transform="translate(-101.61 -186.93)"/><path class="cls-5" d="M727.81,738.58a14.12,14.12,0,0,0,19.79,1.84l16-13.27a14,14,0,0,0-17.82-21.69l-16.16,13.37a14.13,14.13,0,0,0-1.8,19.75" transform="translate(-101.61 -186.93)"/><path class="cls-5" d="M822.31,652.94c6,11.23,1.36,21.52-6,25.5a20.19,20.19,0,0,1-9.5,2.53c-6.45,0-12.29-3.62-15.89-10.35l-19.1-35.78c-4.3-8.07-5.42-14.73-3.42-20.37l.17-.48.41-.29,12.83-9.22C766.7,594.16,756.11,590.84,756,590.8c-11.61-3.17-18.19-9.54-24-15.16a54.22,54.22,0,0,0-9.09-7.64l-.33-.26a14.81,14.81,0,0,0-12-2.64c-9.42,1.88-24.1,8.21-40.65,27.74-15.87,18.74-20.59,33.71-21.75,43a13.25,13.25,0,0,0,6.38,12.94l.06,0A146.22,146.22,0,0,1,671.46,661c2.73,2.29,5.07,4.2,7.16,5.9s4,3.27,5.79,4.79a17.1,17.1,0,0,1,3.27-3.59l16.2-13.39,4.42-2.59a17.25,17.25,0,0,1,23,20.82,17.21,17.21,0,0,1,26.42,15.13h0a17.32,17.32,0,0,1-4.55,11.07,17.28,17.28,0,0,1,14.78,28.24A16.19,16.19,0,0,1,779.59,756l-.93.78,7.22,5.77c5.47,4.39,11.72,7.08,16.72,7.2a11.1,11.1,0,0,0,7.7-2.55c3.67-2.75,5.68-6.27,5.74-10a12.1,12.1,0,0,0-4.87-9.56h0l-23.06-17.92,2-2.56,23.09,17.93-.79,1,.8-1,7.37,5.88a16.09,16.09,0,0,0,9.66,3.58,13.64,13.64,0,0,0,11.1-5,13.46,13.46,0,0,0,2.8-10,16,16,0,0,0-6-10.6h0L811,707.89l2-2.56,27.2,21.14-.88,1.14.9-1.12,8.58,6.85c7.11,4.94,15.71,4.36,20.36-1.46a13.51,13.51,0,0,0,2.74-10.53A16,16,0,0,0,866,711.3h0L833.7,686.21l2-2.56L868,708.76l-.87,1.12.53-.66.36-.44a16.18,16.18,0,0,0,9.64,3.56,13.58,13.58,0,0,0,11.12-5,13.91,13.91,0,0,0,1.48-14.64,16.21,16.21,0,0,0-4.64-5.94l-53-42.4c-5.14-4-7.7-5.78-9.95-7.35-2.62-1.82-4.93-3.43-10.43-7.91l-.66,3.78Z" transform="translate(-101.61 -186.93)"/><path class="cls-5" d="M754.46,688a14,14,0,0,0-12.66-14.37q-.67-.06-1.35-.06a13.82,13.82,0,0,0-8.86,3.19l-21.87,18.14a14,14,0,0,0-1.84,19.66,14,14,0,0,0,19.66,1.83l2.55-2.12L743.63,703l.11-.08,5.69-4.71a14,14,0,0,0,5-10.27" transform="translate(-101.61 -186.93)"/><polygon class="cls-5" points="736.57 542.1 737.67 540.68 736.55 542.09 736.57 542.1"/><polygon class="cls-5" points="709.58 560.73 710.78 559.19 709.56 560.72 709.58 560.73"/><polygon class="cls-20" points="509.35 783.4 509.39 792.63 468.12 767.24 474.46 763.58 509.35 783.4"/><polygon class="cls-20" points="547.11 721.55 553.26 718.09 556.04 719.92 553.56 727.23 547.28 722.91 547.11 721.55"/><polygon class="cls-20" points="559.58 721.61 557.21 728.92 565.35 745.77 552.79 764.99 574.32 783.96 688.95 841.82 694.22 838.53 605.59 748.33 582.52 723.73 559.58 721.61"/><polygon class="cls-20" points="671.52 856.65 677.26 853.42 694.21 863.62 694.21 871.13 671.46 859.82 671.52 856.65"/><path class="cls-20" d="M799.7,1051.85l.06,8.3,7,3.33,5.84-3.17s.09-5.32-.39-5.51-8.78-2.85-8.78-2.85Z" transform="translate(-101.61 -186.93)"/><polygon class="cls-20" points="698.15 847.17 698.18 843.52 729.21 861.45 726.44 863.58 720.5 861.7 698.15 847.17"/></g></g></svg>